<?xml version="1.0" encoding="UTF-8"?>
<!--Generator: Apple Native CoreSVG 341-->
<!DOCTYPE svg
PUBLIC "-//W3C//DTD SVG 1.1//EN"
       "http://www.w3.org/Graphics/SVG/1.1/DTD/svg11.dtd">
<svg version="1.1" xmlns="http://www.w3.org/2000/svg" xmlns:xlink="http://www.w3.org/1999/xlink" viewBox="0 0 3300 2200">
 <!--glyph: "1019C9", point size: 100.0, font version: "20.0d10e1", template writer version: "138.0.0"-->
 <style>.monochrome-0 {-sfsymbols-motion-group:1;-sfsymbols-layer-tags:text.page text.page.badge.magnifyingglass}
.monochrome-1 {-sfsymbols-motion-group:1;-sfsymbols-layer-tags:text.page text.page.badge.magnifyingglass}
.monochrome-2 {-sfsymbols-motion-group:1;-sfsymbols-layer-tags:text.page text.page.badge.magnifyingglass}
.monochrome-3 {opacity:0.0;-sfsymbols-clear-behind:true;-sfsymbols-motion-group:0;-sfsymbols-layer-tags:_badge magnifiyingglass text.page.badge.magnifyingglass}
.monochrome-4 {-sfsymbols-motion-group:0;-sfsymbols-layer-tags:_badge magnifiyingglass text.page.badge.magnifyingglass}

.multicolor-0:tintColor {-sfsymbols-motion-group:1;-sfsymbols-layer-tags:text.page text.page.badge.magnifyingglass}
.multicolor-1:tintColor {-sfsymbols-motion-group:1;-sfsymbols-layer-tags:text.page text.page.badge.magnifyingglass}
.multicolor-2:tintColor {-sfsymbols-motion-group:1;-sfsymbols-layer-tags:text.page text.page.badge.magnifyingglass}
.multicolor-3:tintColor {opacity:0.0;-sfsymbols-clear-behind:true;-sfsymbols-motion-group:0;-sfsymbols-layer-tags:_badge magnifiyingglass text.page.badge.magnifyingglass}
.multicolor-4:tintColor {-sfsymbols-motion-group:0;-sfsymbols-layer-tags:_badge magnifiyingglass text.page.badge.magnifyingglass}

.hierarchical-0:secondary {-sfsymbols-motion-group:1;-sfsymbols-layer-tags:text.page text.page.badge.magnifyingglass}
.hierarchical-1:secondary {-sfsymbols-motion-group:1;-sfsymbols-layer-tags:text.page text.page.badge.magnifyingglass}
.hierarchical-2:secondary {-sfsymbols-motion-group:1;-sfsymbols-layer-tags:text.page text.page.badge.magnifyingglass}
.hierarchical-3:primary {opacity:0.0;-sfsymbols-clear-behind:true;-sfsymbols-motion-group:0;-sfsymbols-layer-tags:_badge magnifiyingglass text.page.badge.magnifyingglass}
.hierarchical-4:primary {-sfsymbols-motion-group:0;-sfsymbols-layer-tags:_badge magnifiyingglass text.page.badge.magnifyingglass}

.SFSymbolsPreviewWireframe {fill:none;opacity:1.0;stroke:black;stroke-width:0.5}
</style>
 <g id="Notes">
  <rect height="2200" id="artboard" style="fill:white;opacity:1" width="3300" x="0" y="0"/>
  <line style="fill:none;stroke:black;opacity:1;stroke-width:0.5;" x1="263" x2="3036" y1="292" y2="292"/>
  <text style="stroke:none;fill:black;font-family:sans-serif;font-size:13;font-weight:bold;" transform="matrix(1 0 0 1 263 322)">Weight/Scale Variations</text>
  <text style="stroke:none;fill:black;font-family:sans-serif;font-size:13;text-anchor:middle;" transform="matrix(1 0 0 1 559.711 322)">Ultralight</text>
  <text style="stroke:none;fill:black;font-family:sans-serif;font-size:13;text-anchor:middle;" transform="matrix(1 0 0 1 856.422 322)">Thin</text>
  <text style="stroke:none;fill:black;font-family:sans-serif;font-size:13;text-anchor:middle;" transform="matrix(1 0 0 1 1153.13 322)">Light</text>
  <text style="stroke:none;fill:black;font-family:sans-serif;font-size:13;text-anchor:middle;" transform="matrix(1 0 0 1 1449.84 322)">Regular</text>
  <text style="stroke:none;fill:black;font-family:sans-serif;font-size:13;text-anchor:middle;" transform="matrix(1 0 0 1 1746.56 322)">Medium</text>
  <text style="stroke:none;fill:black;font-family:sans-serif;font-size:13;text-anchor:middle;" transform="matrix(1 0 0 1 2043.27 322)">Semibold</text>
  <text style="stroke:none;fill:black;font-family:sans-serif;font-size:13;text-anchor:middle;" transform="matrix(1 0 0 1 2339.98 322)">Bold</text>
  <text style="stroke:none;fill:black;font-family:sans-serif;font-size:13;text-anchor:middle;" transform="matrix(1 0 0 1 2636.69 322)">Heavy</text>
  <text style="stroke:none;fill:black;font-family:sans-serif;font-size:13;text-anchor:middle;" transform="matrix(1 0 0 1 2933.4 322)">Black</text>
  <line style="fill:none;stroke:black;opacity:1;stroke-width:0.5;" x1="263" x2="3036" y1="1903" y2="1903"/>
  <g transform="matrix(0.2 0 0 0.2 263 1933)">
   <path d="m46.2402 4.15039c21.7773 0 39.4531-17.627 39.4531-39.4043s-17.6758-39.4043-39.4531-39.4043c-21.7285 0-39.4043 17.627-39.4043 39.4043s17.6758 39.4043 39.4043 39.4043Zm0-7.42188c-17.6758 0-31.9336-14.3066-31.9336-31.9824s14.2578-31.9824 31.9336-31.9824 31.9824 14.3066 31.9824 31.9824-14.3066 31.9824-31.9824 31.9824Zm-17.9688-31.9824c0 2.14844 1.51367 3.61328 3.75977 3.61328h10.498v10.5957c0 2.19727 1.46484 3.71094 3.61328 3.71094 2.24609 0 3.71094-1.51367 3.71094-3.71094v-10.5957h10.5957c2.19727 0 3.71094-1.46484 3.71094-3.61328 0-2.19727-1.51367-3.71094-3.71094-3.71094h-10.5957v-10.5469c0-2.24609-1.46484-3.75977-3.71094-3.75977-2.14844 0-3.61328 1.51367-3.61328 3.75977v10.5469h-10.498c-2.24609 0-3.75977 1.51367-3.75977 3.71094Z"/>
  </g>
  <g transform="matrix(0.2 0 0 0.2 281.506 1933)">
   <path d="m58.5449 14.5508c27.4902 0 49.8047-22.3145 49.8047-49.8047s-22.3145-49.8047-49.8047-49.8047-49.8047 22.3145-49.8047 49.8047 22.3145 49.8047 49.8047 49.8047Zm0-8.30078c-22.9492 0-41.5039-18.5547-41.5039-41.5039s18.5547-41.5039 41.5039-41.5039 41.5039 18.5547 41.5039 41.5039-18.5547 41.5039-41.5039 41.5039Zm-22.6562-41.5039c0 2.39258 1.66016 4.00391 4.15039 4.00391h14.3555v14.4043c0 2.44141 1.66016 4.15039 4.05273 4.15039 2.44141 0 4.15039-1.66016 4.15039-4.15039v-14.4043h14.4043c2.44141 0 4.15039-1.61133 4.15039-4.00391 0-2.44141-1.70898-4.15039-4.15039-4.15039h-14.4043v-14.3555c0-2.49023-1.70898-4.19922-4.15039-4.19922-2.39258 0-4.05273 1.70898-4.05273 4.19922v14.3555h-14.3555c-2.49023 0-4.15039 1.70898-4.15039 4.15039Z"/>
  </g>
  <g transform="matrix(0.2 0 0 0.2 304.924 1933)">
   <path d="m74.8535 28.3203c35.1074 0 63.623-28.4668 63.623-63.5742s-28.5156-63.623-63.623-63.623-63.5742 28.5156-63.5742 63.623 28.4668 63.5742 63.5742 63.5742Zm0-9.08203c-30.127 0-54.4922-24.3652-54.4922-54.4922s24.3652-54.4922 54.4922-54.4922 54.4922 24.3652 54.4922 54.4922-24.3652 54.4922-54.4922 54.4922Zm-28.8574-54.4922c0 2.58789 1.85547 4.39453 4.58984 4.39453h19.7266v19.7754c0 2.68555 1.85547 4.58984 4.44336 4.58984 2.68555 0 4.54102-1.85547 4.54102-4.58984v-19.7754h19.7754c2.68555 0 4.58984-1.80664 4.58984-4.39453 0-2.73438-1.85547-4.58984-4.58984-4.58984h-19.7754v-19.7266c0-2.73438-1.85547-4.63867-4.54102-4.63867-2.58789 0-4.44336 1.9043-4.44336 4.63867v19.7266h-19.7266c-2.73438 0-4.58984 1.85547-4.58984 4.58984Z"/>
  </g>
  <text style="stroke:none;fill:black;font-family:sans-serif;font-size:13;font-weight:bold;" transform="matrix(1 0 0 1 263 1953)">Design Variations</text>
  <text style="stroke:none;fill:black;font-family:sans-serif;font-size:13;" transform="matrix(1 0 0 1 263 1971)">Symbols are supported in up to nine weights and three scales.</text>
  <text style="stroke:none;fill:black;font-family:sans-serif;font-size:13;" transform="matrix(1 0 0 1 263 1989)">For optimal layout with text and other symbols, vertically align</text>
  <text style="stroke:none;fill:black;font-family:sans-serif;font-size:13;" transform="matrix(1 0 0 1 263 2007)">symbols with the adjacent text.</text>
  <line style="fill:none;stroke:#00AEEF;stroke-width:0.5;opacity:1.0;" x1="776" x2="776" y1="1919" y2="1933"/>
  <g transform="matrix(0.2 0 0 0.2 776 1933)">
   <path d="m16.5527 0.78125c2.58789 0 3.85742-0.976562 4.78516-3.71094l6.29883-17.2363h28.8086l6.29883 17.2363c0.927734 2.73438 2.19727 3.71094 4.73633 3.71094 2.58789 0 4.24805-1.5625 4.24805-4.00391 0-0.830078-0.146484-1.61133-0.537109-2.63672l-22.9004-60.9863c-1.12305-2.97852-3.125-4.49219-6.25-4.49219-3.02734 0-5.07812 1.46484-6.15234 4.44336l-22.9004 61.084c-0.390625 1.02539-0.537109 1.80664-0.537109 2.63672 0 2.44141 1.5625 3.95508 4.10156 3.95508Zm13.4766-28.3691 11.8652-32.8613h0.244141l11.8652 32.8613Z"/>
  </g>
  <line style="fill:none;stroke:#00AEEF;stroke-width:0.5;opacity:1.0;" x1="792.836" x2="792.836" y1="1919" y2="1933"/>
  <text style="stroke:none;fill:black;font-family:sans-serif;font-size:13;font-weight:bold;" transform="matrix(1 0 0 1 776 1953)">Margins</text>
  <text style="stroke:none;fill:black;font-family:sans-serif;font-size:13;" transform="matrix(1 0 0 1 776 1971)">Leading and trailing margins on the left and right side of each symbol</text>
  <text style="stroke:none;fill:black;font-family:sans-serif;font-size:13;" transform="matrix(1 0 0 1 776 1989)">can be adjusted by modifying the x-location of the margin guidelines.</text>
  <text style="stroke:none;fill:black;font-family:sans-serif;font-size:13;" transform="matrix(1 0 0 1 776 2007)">Modifications are automatically applied proportionally to all</text>
  <text style="stroke:none;fill:black;font-family:sans-serif;font-size:13;" transform="matrix(1 0 0 1 776 2025)">scales and weights.</text>
  <g transform="matrix(0.2 0 0 0.2 1289 1933)">
   <path d="m14.209 9.32617 8.49609 8.54492c4.29688 4.3457 9.22852 4.05273 13.8672-1.07422l53.4668-58.9355-4.83398-4.88281-53.0762 58.3984c-1.75781 2.00195-3.41797 2.49023-5.76172 0.146484l-5.85938-5.81055c-2.34375-2.29492-1.80664-4.00391 0.195312-5.81055l57.373-54.0039-4.88281-4.83398-57.959 54.4434c-4.93164 4.58984-5.32227 9.47266-1.02539 13.8184Zm32.0801-90.9668c-2.09961 2.05078-2.24609 4.93164-1.07422 6.88477 1.17188 1.80664 3.4668 2.97852 6.68945 2.14844 7.32422-1.70898 14.9414-2.00195 22.0703 2.68555l-2.92969 7.27539c-1.70898 4.15039-0.830078 7.08008 1.85547 9.81445l11.4746 11.5723c2.44141 2.44141 4.49219 2.53906 7.32422 2.05078l5.32227-0.976562 3.32031 3.36914-0.195312 2.7832c-0.195312 2.49023 0.439453 4.39453 2.88086 6.78711l3.80859 3.71094c2.39258 2.39258 5.46875 2.53906 7.8125 0.195312l14.5508-14.5996c2.34375-2.34375 2.24609-5.32227-0.146484-7.71484l-3.85742-3.80859c-2.39258-2.39258-4.24805-3.17383-6.64062-2.97852l-2.88086 0.244141-3.22266-3.17383 1.2207-5.61523c0.634766-2.83203-0.146484-5.0293-3.07617-7.95898l-10.9863-10.9375c-16.6992-16.6016-38.8672-16.2109-53.3203-1.75781Zm7.4707 1.85547c12.1582-8.88672 28.6133-7.37305 39.7461 3.75977l12.1582 12.0605c1.17188 1.17188 1.36719 2.09961 1.02539 3.80859l-1.61133 7.42188 7.51953 7.42188 4.93164-0.292969c1.26953-0.0488281 1.66016 0.0488281 2.63672 1.02539l2.88086 2.88086-12.207 12.207-2.88086-2.88086c-0.976562-0.976562-1.12305-1.36719-1.07422-2.68555l0.341797-4.88281-7.4707-7.42188-7.61719 1.26953c-1.61133 0.341797-2.34375 0.195312-3.56445-0.976562l-10.0098-10.0098c-1.26953-1.17188-1.41602-2.00195-0.634766-3.85742l4.39453-10.4492c-7.8125-7.27539-17.9688-10.4004-28.125-7.42188-0.78125 0.195312-1.07422-0.439453-0.439453-0.976562Z"/>
  </g>
  <text style="stroke:none;fill:black;font-family:sans-serif;font-size:13;font-weight:bold;" transform="matrix(1 0 0 1 1289 1953)">Exporting</text>
  <text style="stroke:none;fill:black;font-family:sans-serif;font-size:13;" transform="matrix(1 0 0 1 1289 1971)">Symbols should be outlined when exporting to ensure the</text>
  <text style="stroke:none;fill:black;font-family:sans-serif;font-size:13;" transform="matrix(1 0 0 1 1289 1989)">design is preserved when submitting to Xcode.</text>
  <text id="template-version" style="stroke:none;fill:black;font-family:sans-serif;font-size:13;text-anchor:end;" transform="matrix(1 0 0 1 3036 1933)">Template v.6.0</text>
  <text style="stroke:none;fill:black;font-family:sans-serif;font-size:13;text-anchor:end;" transform="matrix(1 0 0 1 3036 1951)">Requires Xcode 16 or greater</text>
  <text id="descriptive-name" style="stroke:none;fill:black;font-family:sans-serif;font-size:13;text-anchor:end;" transform="matrix(1 0 0 1 3036 1969)">Generated from text.page.badge.magnifyingglass</text>
  <text style="stroke:none;fill:black;font-family:sans-serif;font-size:13;text-anchor:end;" transform="matrix(1 0 0 1 3036 1987)">Typeset at 100.0 points</text>
  <text style="stroke:none;fill:black;font-family:sans-serif;font-size:13;" transform="matrix(1 0 0 1 263 726)">Small</text>
  <text style="stroke:none;fill:black;font-family:sans-serif;font-size:13;" transform="matrix(1 0 0 1 263 1156)">Medium</text>
  <text style="stroke:none;fill:black;font-family:sans-serif;font-size:13;" transform="matrix(1 0 0 1 263 1586)">Large</text>
 </g>
 <g id="Guides">
  <g id="H-reference" style="fill:#27AAE1;stroke:none;" transform="matrix(1 0 0 1 339 696)">
   <path d="M0.993654 0L3.63775 0L29.3281-67.1323L30.0303-67.1323L30.0303-70.459L28.1226-70.459ZM11.6885-24.4799L46.9815-24.4799L46.2315-26.7285L12.4385-26.7285ZM55.1196 0L57.7637 0L30.6382-70.459L29.4326-70.459L29.4326-67.1323Z"/>
  </g>
  <line id="Baseline-S" style="fill:none;stroke:#27AAE1;opacity:1;stroke-width:0.5;" x1="263" x2="3036" y1="696" y2="696"/>
  <line id="Capline-S" style="fill:none;stroke:#27AAE1;opacity:1;stroke-width:0.5;" x1="263" x2="3036" y1="625.541" y2="625.541"/>
  <g id="H-reference" style="fill:#27AAE1;stroke:none;" transform="matrix(1 0 0 1 339 1126)">
   <path d="M0.993654 0L3.63775 0L29.3281-67.1323L30.0303-67.1323L30.0303-70.459L28.1226-70.459ZM11.6885-24.4799L46.9815-24.4799L46.2315-26.7285L12.4385-26.7285ZM55.1196 0L57.7637 0L30.6382-70.459L29.4326-70.459L29.4326-67.1323Z"/>
  </g>
  <line id="Baseline-M" style="fill:none;stroke:#27AAE1;opacity:1;stroke-width:0.5;" x1="263" x2="3036" y1="1126" y2="1126"/>
  <line id="Capline-M" style="fill:none;stroke:#27AAE1;opacity:1;stroke-width:0.5;" x1="263" x2="3036" y1="1055.54" y2="1055.54"/>
  <g id="H-reference" style="fill:#27AAE1;stroke:none;" transform="matrix(1 0 0 1 339 1556)">
   <path d="M0.993654 0L3.63775 0L29.3281-67.1323L30.0303-67.1323L30.0303-70.459L28.1226-70.459ZM11.6885-24.4799L46.9815-24.4799L46.2315-26.7285L12.4385-26.7285ZM55.1196 0L57.7637 0L30.6382-70.459L29.4326-70.459L29.4326-67.1323Z"/>
  </g>
  <line id="Baseline-L" style="fill:none;stroke:#27AAE1;opacity:1;stroke-width:0.5;" x1="263" x2="3036" y1="1556" y2="1556"/>
  <line id="Capline-L" style="fill:none;stroke:#27AAE1;opacity:1;stroke-width:0.5;" x1="263" x2="3036" y1="1485.54" y2="1485.54"/>
  <line id="right-margin-Black-S" style="fill:none;stroke:#FF3B30;stroke-width:0.5;opacity:1.0;" x1="2979.1" x2="2979.1" y1="600.785" y2="720.121"/>
  <line id="left-margin-Black-S" style="fill:none;stroke:#00AEEF;stroke-width:0.5;opacity:1.0;" x1="2887.7" x2="2887.7" y1="600.785" y2="720.121"/>
  <line id="right-margin-Regular-S" style="fill:none;stroke:#FF3B30;stroke-width:0.5;opacity:1.0;" x1="1492.13" x2="1492.13" y1="600.785" y2="720.121"/>
  <line id="left-margin-Regular-S" style="fill:none;stroke:#00AEEF;stroke-width:0.5;opacity:1.0;" x1="1407.56" x2="1407.56" y1="600.785" y2="720.121"/>
  <line id="right-margin-Ultralight-S" style="fill:none;stroke:#FF3B30;stroke-width:0.5;opacity:1.0;" x1="600.134" x2="600.134" y1="600.785" y2="720.121"/>
  <line id="left-margin-Ultralight-S" style="fill:none;stroke:#00AEEF;stroke-width:0.5;opacity:1.0;" x1="519.288" x2="519.288" y1="600.785" y2="720.121"/>
 </g>
 <g id="Symbols">
  <g id="Black-S" transform="matrix(1 0 0 1 2887.7 696)">
   <path class="monochrome-0 multicolor-0:tintColor hierarchical-0:secondary SFSymbolsPreviewWireframe" d="M9.76562-8.54492C9.76562 1.02539 15.4297 6.68945 25 6.68945L66.4062 6.68945C75.9766 6.68945 81.6406 1.02539 81.6406-8.54492L81.6406-64.7949C81.6406-74.3652 75.9766-80.0293 66.4062-80.0293L25-80.0293C15.4297-80.0293 9.76562-74.3652 9.76562-64.7949ZM67.4805-62.5488L67.4805-10.791C67.4805-8.54492 66.6016-7.4707 64.1602-7.4707L27.2461-7.4707C24.8047-7.4707 23.9258-8.54492 23.9258-10.791L23.9258-62.5488C23.9258-64.7949 24.8047-65.8691 27.2461-65.8691L64.1602-65.8691C66.6016-65.8691 67.4805-64.7949 67.4805-62.5488Z"/>
   <path class="monochrome-1 multicolor-1:tintColor hierarchical-1:secondary SFSymbolsPreviewWireframe" d="M34.2285-38.7207L57.2266-38.7207C58.7891-38.7207 59.9609-39.9414 59.9609-41.5039C59.9609-43.0176 58.7891-44.1895 57.2266-44.1895L34.2285-44.1895C32.6172-44.1895 31.4453-43.0176 31.4453-41.5039C31.4453-39.9414 32.6172-38.7207 34.2285-38.7207Z"/>
   <path class="monochrome-2 multicolor-2:tintColor hierarchical-2:secondary SFSymbolsPreviewWireframe" d="M34.2285-50.4395L57.2266-50.4395C58.7891-50.4395 59.9609-51.6602 59.9609-53.2227C59.9609-54.7363 58.7891-55.9082 57.2266-55.9082L34.2285-55.9082C32.6172-55.9082 31.4453-54.7363 31.4453-53.2227C31.4453-51.6602 32.6172-50.4395 34.2285-50.4395Z"/>
   <path class="monochrome-3 multicolor-3:tintColor hierarchical-3:primary SFSymbolsPreviewWireframe" d="M66.5039 14.1113C68.1641 14.1113 69.8242 13.916 71.3867 13.5742L75.3418 17.4805C77.5879 19.6777 80.6152 20.8496 83.6914 20.8496C90.332 20.8496 95.5566 15.6738 95.5566 8.98438C95.5566 5.95703 94.3848 2.92969 92.0898 0.634766L88.3789-3.07617C88.8184-4.83398 89.0625-6.64062 89.0625-8.49609C89.0625-20.8496 78.9062-31.0547 66.5039-31.0547C54.1016-31.0547 43.8965-20.8496 43.8965-8.49609C43.8965 3.95508 54.1016 14.1113 66.5039 14.1113Z"/>
   <path class="monochrome-4 multicolor-4:tintColor hierarchical-4:primary SFSymbolsPreviewWireframe" d="M66.5039 7.76367C75.3906 7.76367 82.7148 0.439453 82.7148-8.49609C82.7148-17.334 75.3906-24.707 66.5039-24.707C57.6172-24.707 50.2441-17.334 50.2441-8.49609C50.2441 0.439453 57.6172 7.76367 66.5039 7.76367ZM66.5039-0.195312C61.9629-0.195312 58.2031-3.85742 58.2031-8.49609C58.2031-13.0859 61.9629-16.6992 66.5039-16.6992C71.0449-16.6992 74.7559-13.0859 74.7559-8.49609C74.7559-3.85742 71.0449-0.195312 66.5039-0.195312ZM83.6914 14.502C86.8164 14.502 89.209 12.1582 89.209 8.98438C89.209 7.61719 88.7207 6.25 87.5977 5.12695L78.418-4.05273L70.5566 3.75977L79.7852 12.9395C80.8594 13.9648 82.2754 14.502 83.6914 14.502Z"/>
  </g>
  <g id="Regular-S" transform="matrix(1 0 0 1 1407.56 696)">
   <path class="monochrome-0 multicolor-0:tintColor hierarchical-0:secondary SFSymbolsPreviewWireframe" d="M9.76562-7.95898C9.76562 0.341797 13.8184 4.49219 22.0215 4.49219L62.5 4.49219C70.7031 4.49219 74.8047 0.390625 74.8047-7.95898L74.8047-65.3809C74.8047-73.7305 70.7031-77.832 62.5-77.832L22.0215-77.832C13.8184-77.832 9.76562-73.6816 9.76562-65.3809ZM67.7246-65.2832L67.7246-8.05664C67.7246-4.54102 65.6738-2.53906 62.1582-2.53906L22.4121-2.53906C18.7012-2.53906 16.7969-4.54102 16.7969-8.05664L16.7969-65.2832C16.7969-68.7988 18.7012-70.8008 22.4121-70.8008L62.1582-70.8008C65.6738-70.8008 67.7246-68.7988 67.7246-65.2832Z"/>
   <path class="monochrome-1 multicolor-1:tintColor hierarchical-1:secondary SFSymbolsPreviewWireframe" d="M28.125-41.8457L56.4941-41.8457C58.0078-41.8457 59.1309-43.0176 59.1309-44.5312C59.1309-45.9961 58.0078-47.1191 56.4941-47.1191L28.125-47.1191C26.5625-47.1191 25.4395-45.9961 25.4395-44.5312C25.4395-43.0176 26.5625-41.8457 28.125-41.8457Z"/>
   <path class="monochrome-2 multicolor-2:tintColor hierarchical-2:secondary SFSymbolsPreviewWireframe" d="M28.125-55.127L56.4941-55.127C58.0078-55.127 59.1309-56.2988 59.1309-57.8125C59.1309-59.2773 58.0078-60.4004 56.4941-60.4004L28.125-60.4004C26.5625-60.4004 25.4395-59.2773 25.4395-57.8125C25.4395-56.2988 26.5625-55.127 28.125-55.127Z"/>
   <path class="monochrome-3 multicolor-3:tintColor hierarchical-3:primary SFSymbolsPreviewWireframe" d="M56.8848 8.00781C59.2285 8.00781 61.5234 7.61719 63.6719 6.88477L70.0195 13.1836C71.9238 15.0879 74.3164 16.1621 77.002 16.1621C82.1289 16.1621 86.1816 12.0605 86.1816 6.78711C86.1816 4.39453 85.0586 1.95312 83.3496 0.244141L77.002-6.15234C77.832-8.39844 78.3203-10.8887 78.3203-13.4277C78.3203-25.1465 68.6523-34.8145 56.8848-34.8145C45.166-34.8145 35.498-25.1465 35.498-13.4277C35.498-1.61133 45.166 8.00781 56.8848 8.00781Z"/>
   <path class="monochrome-4 multicolor-4:tintColor hierarchical-4:primary SFSymbolsPreviewWireframe" d="M56.8848 2.34375C65.5273 2.34375 72.6074-4.78516 72.6074-13.4277C72.6074-22.0215 65.5273-29.1016 56.8848-29.1016C48.291-29.1016 41.2109-22.0215 41.2109-13.4277C41.2109-4.78516 48.291 2.34375 56.8848 2.34375ZM56.8848-3.4668C51.5137-3.4668 47.0215-7.95898 47.0215-13.4277C47.0215-18.75 51.5137-23.2422 56.8848-23.2422C62.3047-23.2422 66.7969-18.75 66.7969-13.4277C66.7969-7.95898 62.3047-3.4668 56.8848-3.4668ZM77.002 10.4492C79.0039 10.4492 80.4688 8.93555 80.4688 6.78711C80.4688 5.9082 79.9805 4.98047 79.2969 4.29688L69.5801-5.46875L64.4043-0.439453L74.0723 9.13086C74.9023 10.0098 75.8301 10.4492 77.002 10.4492Z"/>
  </g>
  <g id="Ultralight-S" transform="matrix(1 0 0 1 519.288 696)">
   <path class="monochrome-0 multicolor-0:tintColor hierarchical-0:secondary SFSymbolsPreviewWireframe" d="M9.76562-6.27882C9.76562 0.250977 13.3189 3.72022 19.751 3.72022L61.0923 3.72022C67.6607 3.72022 71.0811 0.254396 71.0811-6.27882L71.0811-66.9702C71.0811-73.5034 67.6607-76.9692 61.0923-76.9692L19.751-76.9692C13.3189-76.9692 9.76562-73.5 9.76562-66.9702ZM68.9053-66.8725L68.9053-6.37648C68.9053-1.18069 66.1733 1.50241 60.9775 1.50241L19.8692 1.50241C14.6597 1.50241 11.9834-1.36233 11.9834-6.37648L11.9834-66.8725C11.9834-71.8413 14.6597-74.7514 19.8692-74.7514L60.9775-74.7514C66.1733-74.7514 68.9053-72.0683 68.9053-66.8725Z"/>
   <path class="monochrome-1 multicolor-1:tintColor hierarchical-1:secondary SFSymbolsPreviewWireframe" d="M24.4922-45.8872L56.3579-45.8872C57.0088-45.8872 57.4507-46.3779 57.4507-46.938C57.4507-47.54 57.0088-47.9819 56.3579-47.9819L24.4922-47.9819C23.8833-47.9819 23.396-47.54 23.396-46.938C23.396-46.3779 23.8833-45.8872 24.4922-45.8872Z"/>
   <path class="monochrome-2 multicolor-2:tintColor hierarchical-2:secondary SFSymbolsPreviewWireframe" d="M24.4922-59.4409L56.3579-59.4409C57.0088-59.4409 57.4507-59.9316 57.4507-60.4917C57.4507-61.0937 57.0088-61.581 56.3579-61.581L24.4922-61.581C23.8833-61.581 23.396-61.0937 23.396-60.4917C23.396-59.9316 23.8833-59.4409 24.4922-59.4409Z"/>
   <path class="monochrome-3 multicolor-3:tintColor hierarchical-3:primary SFSymbolsPreviewWireframe" d="M56.4307 5.91896C59.4556 5.91896 62.3408 5.11965 64.8525 3.70608L73.6069 12.5024C74.5576 13.4985 75.7241 14.0733 77.0928 14.0733C79.6768 14.0733 81.5953 12.0605 81.5953 9.55711C81.5953 8.16354 81.0171 7.22066 80.1255 6.23823L71.3257-2.65579C72.837-5.17434 73.7339-8.20949 73.7339-11.3843C73.7339-20.878 65.9732-28.7295 56.4307-28.7295C46.8916-28.7295 39.1308-20.878 39.1308-11.3843C39.1308-1.83838 46.8916 5.91896 56.4307 5.91896Z"/>
   <path class="monochrome-4 multicolor-4:tintColor hierarchical-4:primary SFSymbolsPreviewWireframe" d="M56.4307 2.84326C64.2559 2.84326 70.6548-3.51368 70.6548-11.3843C70.6548-19.2061 64.2559-25.6504 56.4307-25.6504C48.5635-25.6504 42.1645-19.2061 42.1645-11.3843C42.1645-3.51368 48.5635 2.84326 56.4307 2.84326ZM56.4761 0.665495C49.8335 0.665495 44.3877-4.7803 44.3877-11.4297C44.3877-18.0689 49.8335-23.5146 56.4761-23.5146C63.1221-23.5146 68.5224-18.0689 68.5224-11.4297C68.5224-4.73489 63.1221 0.665495 56.4761 0.665495ZM77.0928 10.9941C78.0049 10.9941 78.5161 10.3887 78.5161 9.55711C78.5161 8.99607 78.2549 8.74948 77.8892 8.33835L66.583-3.10744L64.4043-1.02978L75.7524 10.3569C76.1738 10.7363 76.5112 10.9941 77.0928 10.9941Z"/>
  </g>
 </g>
</svg>
